<?xml version="1.0" encoding="iso-8859-1"?>
<!-- Generator: Adobe Illustrator 19.0.0, SVG Export Plug-In . SVG Version: 6.00 Build 0)  -->
<svg version="1.1" id="Capa_1" xmlns="http://www.w3.org/2000/svg" xmlns:xlink="http://www.w3.org/1999/xlink" x="0px" y="0px"
	 viewBox="0 0 512 512" style="enable-background:new 0 0 512 512;" xml:space="preserve">
<g transform="translate(1 1)">
	<g>
		<g>
			<path d="M489.667,233.667H20.333C8.551,233.667-1,243.218-1,255c0,11.782,9.551,21.333,21.333,21.333h469.333
				c11.782,0,21.333-9.551,21.333-21.333C511,243.218,501.449,233.667,489.667,233.667z"/>
			<path d="M255,191c47.131,0,85.333-38.202,85.333-85.333S302.131,20.333,255,20.333s-85.333,38.202-85.333,85.333
				S207.869,191,255,191z M255,63c23.567,0,42.667,19.099,42.667,42.667S278.567,148.333,255,148.333s-42.667-19.099-42.667-42.667
				S231.433,63,255,63z"/>
			<path d="M255,319c-47.131,0-85.333,38.202-85.333,85.333s38.202,85.333,85.333,85.333s85.333-38.202,85.333-85.333
				S302.131,319,255,319z M255,447c-23.567,0-42.667-19.099-42.667-42.667s19.099-42.667,42.667-42.667s42.667,19.099,42.667,42.667
				S278.567,447,255,447z"/>
		</g>
	</g>
</g>
<g>
</g>
<g>
</g>
<g>
</g>
<g>
</g>
<g>
</g>
<g>
</g>
<g>
</g>
<g>
</g>
<g>
</g>
<g>
</g>
<g>
</g>
<g>
</g>
<g>
</g>
<g>
</g>
<g>
</g>
</svg>
